<?xml version="1.0" encoding="UTF-8"?><svg id="a" xmlns="http://www.w3.org/2000/svg" xmlns:xlink="http://www.w3.org/1999/xlink" viewBox="0 0 6192.94 1618.62"><defs><style>.f{fill:url(#e);}.g{fill:url(#d);}.h{fill:url(#c);}.i{fill:url(#b);}.j{fill:#ff156a;}.k{fill:#2aa4ca;}.l{fill:#29a4ca;}.m{fill:#00bf8c;}</style><linearGradient id="b" x1="568.05" y1="344.39" x2="602.43" y2="344.39" gradientUnits="userSpaceOnUse"><stop offset="0" stop-color="#2aa4ca"/><stop offset=".1" stop-color="#359cc5"/><stop offset=".27" stop-color="#5289b7"/><stop offset=".5" stop-color="#8269a2"/><stop offset=".55" stop-color="#8f619d"/><stop offset=".75" stop-color="#bd4187"/><stop offset="1" stop-color="#ff156a"/></linearGradient><linearGradient id="c" x1="138.91" y1="479.44" x2="715.58" y2="479.44" xlink:href="#b"/><linearGradient id="d" x1="486.28" y1="538.27" x2="892.6" y2="538.27" gradientUnits="userSpaceOnUse"><stop offset="0" stop-color="#ffe63f"/><stop offset="1" stop-color="#ff156a"/></linearGradient><linearGradient id="e" x1="0" y1="636.04" x2="830.43" y2="636.04" gradientUnits="userSpaceOnUse"><stop offset="0" stop-color="#ffe63f"/><stop offset="1" stop-color="#00bf8c"/></linearGradient></defs><path class="m" d="M1223.94,620.5c0,171-69,253-163,253-40,0-70-16-91-48v312h-107V379.5h104v60c23-42,57-68,103-68,108,0,154,110,154,249ZM1113.94,627.5c0-112-28-166-71-166-36,0-60,30-73,75v192c17,45,45,58,67,58,60,0,77-74,77-159Z"/><path class="m" d="M1604.94,650.5h-245c3,102,47,140,121,140,37,0,76-9,110-31l-10,94c-28,14-67,22-109,22-155,0-218-91-218-248,0-144,67-258,187-258s164,94,164,251v30ZM1360.94,578.5h138v-5c0-69-13-126-60-126-40,0-71,49-78,131Z"/><path class="m" d="M1979.94,555.5v309h-107v-331c0-51-14-69-44-69-20,0-47,9-73,51v349h-107v-485h103v59c31-41,72-67,122-67,41,0,70,19,86,47,17,32,20,68,20,137Z"/><path class="m" d="M2157.94,512.5c0-238,88-388,260-388,49,0,80,7,104,19l13,116c-25-19-64-36-111-36-84,0-149,87-149,286s57,269,146,269c35,0,77-10,115-36l-12,109c-24,15-70,24-108,24-166,0-258-104-258-363Z"/><path class="m" d="M2552.94,626.5c0-160,66-257,181-257,121,0,174,93,174,248,0,164-69,258-181,258-119,0-174-88-174-249ZM2798.94,617.5c0-139-32-167-66-167-37,0-71,47-71,176,0,138,30,167,66,167,39,0,71-49,71-176Z"/><path class="m" d="M3499.94,541.5v323h-106v-335c0-44-11-66-42-66-18,0-48,10-73,53v348h-102v-335c0-43-11-66-42-66-19,0-48,10-73,53v348h-106v-485h102v58c31-41,69-66,116-66,43,0,69,19,86,47,4,6,7,13,10,22,32-43,74-69,122-69,44,0,79,19,96,64,8,20,12,49,12,106Z"/><path class="m" d="M4110.94,541.5v323h-106v-335c0-44-11-66-42-66-18,0-48,10-73,53v348h-102v-335c0-43-11-66-42-66-19,0-48,10-73,53v348h-106v-485h102v58c31-41,69-66,116-66,43,0,69,19,86,47,4,6,7,13,10,22,32-43,74-69,122-69,44,0,79,19,96,64,8,20,12,49,12,106Z"/><path class="m" d="M4392.94,379.5h107v485h-103v-55c-29,40-67,64-115,64-54,0-83-30-97-70-7-22-11-48-11-91v-333h108v331c0,46,10,69,41,69,18,0,45-9,70-47v-353Z"/><path class="m" d="M4901.94,555.5v309h-107v-331c0-51-14-69-44-69-20,0-47,9-73,51v349h-107v-485h103v59c31-41,72-67,122-67,41,0,70,19,86,47,17,32,20,68,20,137Z"/><path class="m" d="M4964.94,294.5v-112h116v112h-116ZM4968.94,864.5v-485h107v485h-107Z"/><path class="m" d="M5260.94,715.5c0,43,18,66,69,57l-9,92c-12,1-25,3-37,3-70,0-111-30-124-88-6-28-6-54-6-94v-219h-45v-87h45v-207l90-62h17v269h64v87h-64v249Z"/><path class="m" d="M5363.94,294.5v-112h116v112h-116ZM5367.94,864.5v-485h107v485h-107Z"/><path class="m" d="M5871.94,650.5h-245c3,102,47,140,121,140,37,0,76-9,110-31l-10,94c-28,14-67,22-109,22-155,0-218-91-218-248,0-144,67-258,187-258s164,94,164,251v30ZM5627.94,578.5h138v-5c0-69-13-126-60-126-40,0-71,49-78,131Z"/><path class="m" d="M5901.94,853.5l-5-101c34,24,75,38,107,38,41,0,68-23,68-58,0-21-14-39-54-70l-33-24c-51-37-82-74-82-131,0-88,71-138,157-138,38,0,72,5,94,18l8,99c-32-25-66-33-94-33-37,0-63,19-63,49,0,27,20,44,54,70l28,21c57,43,89,82,89,138,0,87-66,144-166,144-42,0-81-8-108-22Z"/><path class="l" d="M2319.23,1249.62c0-23.4,2.4-48,5.4-69.6,21.6-136.2,94.8-210.6,210.6-210.6,31.2,0,64.2,4.8,84.6,15l-3,85.2c-23.4-14.4-49.8-24.6-80.4-24.6-54.6,0-101.4,40.8-117.6,137.4-3.6,19.8-6,43.2-6,61.2,0,71.4,33,102,86.4,102,28.2,0,57-6.6,81-18.6l-19.8,82.2c-20.4,7.2-46.2,10.8-76.8,10.8-101.4,0-164.4-50.4-164.4-170.4Z"/><path class="l" d="M2614.43,1301.82c0-14.4,2.4-32.4,5.4-49.2,15.6-86.4,69-138,148.8-138s122.4,41.4,122.4,117c0,15.6-1.8,31.2-4.8,47.4-15.6,90-70.2,141-148.8,141s-123-40.8-123-118.2ZM2800.43,1269.42c3-15.6,4.2-30.6,4.2-42.6,0-38.4-13.8-53.4-37.2-53.4-26.4,0-50.4,22.8-62.4,91.2-3,15.6-4.2,31.2-4.2,43.8,0,36.6,12.6,52.8,37.2,52.8,27,0,50.4-23.4,62.4-91.8Z"/><path class="l" d="M3155.04,940.02h85.8l-75,473.41h-82.2l5.4-32.4c-19.2,25.2-45.6,38.4-79.8,38.4-59.4,0-90-43.8-90-112.2,0-16.8,1.8-34.2,4.8-51,13.2-78.6,57-141,129-141,30,0,54.6,10.2,69,31.8l33-207ZM3095.64,1316.22l16.8-106.8c-8.4-24-24.6-30.6-40.2-30.6-35.4,0-55.2,37.2-63,84.6-1.8,12-3.6,25.2-3.6,38.4,0,36,14.4,53.4,35.4,53.4,22.2,0,41.4-15,54.6-39Z"/><path class="l" d="M3315.23,1289.22c-.6,3-.6,6.6-.6,9,0,44.4,33,60.6,75.6,60.6,29.4,0,57-5.4,81.6-15.6l-16.2,67.2c-19.8,6-44.4,9.6-75,9.6-86.4,0-148.2-34.2-148.2-127.8,0-15,1.2-31.8,4.2-44.4,15.6-79.8,69-133.2,145.2-133.2s112.2,40.8,112.2,115.8c0,14.4-1.8,39.6-4.8,58.8h-174ZM3321.83,1240.62h90.6c1.2-13.2,1.8-21,1.8-28.8,0-28.2-10.2-42-33-42-28.8,0-49.2,28.8-59.4,70.8Z"/><path class="l" d="M3623.03,1301.82c0-14.4,2.4-32.4,5.4-49.2,15.6-86.4,69-138,148.8-138s122.4,41.4,122.4,117c0,15.6-1.8,31.2-4.8,47.4-15.6,90-70.2,141-148.8,141s-123-40.8-123-118.2ZM3809.04,1269.42c3-15.6,4.2-30.6,4.2-42.6,0-38.4-13.8-53.4-37.2-53.4-26.4,0-50.4,22.8-62.4,91.2-3,15.6-4.2,31.2-4.2,43.8,0,36.6,12.6,52.8,37.2,52.8,27,0,50.4-23.4,62.4-91.8Z"/><path class="l" d="M4143.24,941.82l-3,70.2c-5.4-1.2-10.2-1.2-15.6-1.2-30.6,0-46.2,13.8-51,47.4l-10.2,63h49.8l-9.6,63.6h-50.4l-36,228.6h-85.8l36.6-228.6h-39.6l9.6-63.6h40.2l10.8-69c12.6-78,57.6-112.8,123-112.8,11.4,0,21.6.6,31.2,2.4Z"/><path class="l" d="M4224.83,1249.62c0-23.4,2.4-48,5.4-69.6,21.6-136.2,94.8-210.6,210.6-210.6,31.2,0,64.2,4.8,84.6,15l-3,85.2c-23.4-14.4-49.8-24.6-80.4-24.6-54.6,0-101.4,40.8-117.6,137.4-3.6,19.8-6,43.2-6,61.2,0,71.4,33,102,86.4,102,28.2,0,57-6.6,81-18.6l-19.8,82.2c-20.4,7.2-46.2,10.8-76.8,10.8-101.4,0-164.4-50.4-164.4-170.4Z"/><path class="l" d="M4520.03,1301.82c0-14.4,2.4-32.4,5.4-49.2,15.6-86.4,69-138,148.8-138s122.4,41.4,122.4,117c0,15.6-1.8,31.2-4.8,47.4-15.6,90-70.2,141-148.8,141s-123-40.8-123-118.2ZM4706.04,1269.42c3-15.6,4.2-30.6,4.2-42.6,0-38.4-13.8-53.4-37.2-53.4-26.4,0-50.4,22.8-62.4,91.2-3,15.6-4.2,31.2-4.2,43.8,0,36.6,12.6,52.8,37.2,52.8,27,0,50.4-23.4,62.4-91.8Z"/><path class="l" d="M5102.04,1182.42c0,12-1.8,27-5.4,49.2l-28.8,181.8h-85.2l27.6-175.2c2.4-14.4,3.6-26.4,3.6-32.4,0-12-6.6-21.6-21.6-21.6s-36.6,9-59.4,33.6l-31.2,195.6h-85.8l46.8-292.2h82.2l-6,37.8c26.4-27,56.4-43.2,93-43.2,40.8,0,70.2,21,70.2,66.6Z"/><path class="l" d="M5366.04,940.02h85.8l-75,473.41h-82.2l5.4-32.4c-19.2,25.2-45.6,38.4-79.8,38.4-59.4,0-90-43.8-90-112.2,0-16.8,1.8-34.2,4.8-51,13.2-78.6,57-141,129-141,30,0,54.6,10.2,69,31.8l33-207ZM5306.64,1316.22l16.8-106.8c-8.4-24-24.6-30.6-40.2-30.6-35.4,0-55.2,37.2-63,84.6-1.8,12-3.6,25.2-3.6,38.4,0,36,14.4,53.4,35.4,53.4,22.2,0,41.4-15,54.6-39Z"/><path class="l" d="M5644.43,1121.22h85.2l-46.2,292.2h-82.8l6-37.2c-24.6,26.4-54,42.6-92.4,42.6s-68.4-21-68.4-66.6c0-10.8,1.8-25.8,5.4-49.2l28.8-181.8h85.2l-27.6,175.2c-2.4,13.8-3.6,26.4-3.6,31.8,0,12.6,6.6,21.6,21,21.6,16.2,0,35.4-8.4,58.2-33.6l31.2-195Z"/><path class="l" d="M5749.43,1299.42c0-16.2,1.8-33,4.8-49.2,14.4-76.8,62.4-135.6,153-135.6,30,0,53.4,4.2,69.6,12.6l-3.6,72.6c-19.2-13.2-40.8-20.4-62.4-20.4-43.8,0-64.8,36-72.6,79.2-2.4,11.4-3.6,24-3.6,36,0,38.4,16.2,61.8,57,61.8,20.4,0,44.4-4.8,64.8-15.6l-18,70.2c-15,5.4-37.8,9-63.6,9-81,0-125.4-38.4-125.4-120.6Z"/><path class="l" d="M6123.24,1184.82l-16.2,102.6c-3.6,19.8-4.2,27-4.2,32.4,0,17.4,9.6,27,29.4,27,6.6,0,13.2-1.2,20.4-2.4l-18,67.8c-12,3-24,3.6-34.2,3.6-49.8,0-85.2-24-85.2-74.4,0-12.6,1.8-27.6,5.4-49.2l16.8-107.4h-38.4l10.2-63.6h38.4l19.2-119.4,78.6-43.8h13.2l-25.8,163.2h52.8l-10.2,63.6h-52.2Z"/><path class="k" d="M346.72,348.52c-15.74,0-31.14-7.77-40.25-22.01-14.21-22.21-7.73-51.73,14.48-65.94l1.72-1.09c22.29-14.08,51.77-7.42,65.85,14.87,14.08,22.29,7.42,51.77-14.87,65.85l-1.24.79c-7.97,5.1-16.88,7.53-25.68,7.53Z"/><path class="m" d="M101.55,522.61c-15.76,0-31.18-7.79-40.29-22.06-14.18-22.22-7.66-51.74,14.56-65.92l1.69-1.07c22.3-14.07,51.78-7.4,65.84,14.9,14.07,22.3,7.4,51.78-14.9,65.84l-1.27.81c-7.96,5.08-16.85,7.5-25.64,7.5Z"/><path class="j" d="M736.8,426.89c-15.75,0-31.17-7.79-40.27-22.04-14.19-22.22-7.69-51.73,14.53-65.93l1.7-1.08c22.3-14.06,51.78-7.39,65.84,14.91,14.07,22.3,7.39,51.78-14.91,65.84l-1.24.79c-7.96,5.09-16.86,7.51-25.65,7.51Z"/><path class="i" d="M602.43,327.92c-12.23,10.21-23.71,21.22-34.39,32.94.45-6.48,2.69-12.89,6.82-18.45l.12-.17c6.81-9.16,17.03-14.01,27.44-14.32Z"/><path class="h" d="M692.04,225.87c-164.23,58.79-268.57,218.93-260.47,389.39.12,2.69.28,5.39.46,8.1,1.69,24.98,5.82,50.17,12.55,75.25,9.84,36.71,24.68,71.42,44.23,103.43-31.83-1.82-62.74-9.56-91.27-22.53-8.62-20.19-15.81-41.07-21.57-62.52-8.21-30.61-13.24-61.56-15.15-92.49-15.78-66.77-48.41-127.23-93.73-176.33-16.75-18.17-35.25-34.8-55.28-49.6-16.88-12.49-34.83-23.68-53.74-33.45-16.37-8.44-23.5-28.06-16.42-45.06l.08-.18c7.99-19.19,30.66-27.32,49.12-17.79,77.35,39.96,141.13,100.29,185.13,173.47,10.46-38.51,25.98-75.93,46.46-111.41,55.71-96.47,142.12-168.31,245.9-205.28,19.45-6.93,40.65,4.33,46,24.25l.05.2c4.77,17.83-4.94,36.31-22.33,42.53Z"/><path class="g" d="M892.58,473.75l-.02.18c-.6,18.02-14.64,32.54-32.6,34.14-10.55.92-20.99,2.51-31.28,4.71-24.25,5.16-47.63,13.75-69.45,25.44-34.05,18.25-64.32,44.03-88.24,76.1-6.9,14.41-15.24,28.29-24.98,41.42-33.66,45.46-81.52,78.2-135.49,92.89-9.47-19.65-17.11-40.25-22.82-61.58-.49-1.85-.97-3.7-1.43-5.54,40.88-9.7,77.33-33.85,102.65-68.03,28.24-38.14,40.27-84.69,33.85-131.11-4.97-36.03-20.63-68.62-44.86-94.19-7.18-7.58-10.56-17.54-9.87-27.32.45-6.48,2.69-12.89,6.82-18.45l.12-.17c6.81-9.16,17.03-14.01,27.44-14.32,9.61-.31,19.34,3.26,26.62,10.9,34.65,36.33,57.02,82.63,64.09,133.83.99,7.15,1.66,14.31,2.03,21.44,47.14-32.11,101.83-51.88,159.04-56.85,21.13-1.83,39.07,15.32,38.36,36.51Z"/><path class="f" d="M830.43,546.52c0,180.31-146.69,326.98-326.98,326.98-94.92,0-185.03-41.18-247.24-113h.02c-12.53-14.46-23.68-29.9-33.38-46.15l-.77.59c-45.73-61.76-114.94-100.35-189.47-106.93-17.94-1.58-31.97-16.12-32.57-34.13v-.18c-.71-21.19,17.24-38.34,38.36-36.5,49.67,4.32,97.45,19.81,140.03,44.84-1.29-11.75-1.96-23.61-1.96-35.52,0-51.88,12.12-102.34,35.32-147.94,20.03,14.8,38.53,31.43,55.28,49.6-12.87,30.92-19.56,64.23-19.56,98.34,0,61.55,22.16,121.02,62.4,167.48h-.02c24.47,28.24,54.44,50.43,87.64,65.52,28.53,12.97,59.44,20.71,91.27,22.53,4.87.28,9.75.42,14.64.42,141.12,0,255.93-114.81,255.93-255.94,0-2.77-.05-5.53-.14-8.3,21.82-11.69,45.2-20.28,69.45-25.44,1.17,11.19,1.74,22.45,1.74,33.74Z"/></svg>